<?xml version="1.0" encoding="utf-8"?>
<!-- Generator: Adobe Illustrator 27.5.0, SVG Export Plug-In . SVG Version: 6.00 Build 0)   -->
<!DOCTYPE svg [
	<!ENTITY ns_extend "http://ns.adobe.com/Extensibility/1.0/">
	<!ENTITY ns_ai "http://ns.adobe.com/AdobeIllustrator/10.0/">
	<!ENTITY ns_graphs "http://ns.adobe.com/Graphs/1.0/">
	<!ENTITY ns_vars "http://ns.adobe.com/Variables/1.0/">
	<!ENTITY ns_imrep "http://ns.adobe.com/ImageReplacement/1.0/">
	<!ENTITY ns_sfw "http://ns.adobe.com/SaveForWeb/1.0/">
	<!ENTITY ns_custom "http://ns.adobe.com/GenericCustomNamespace/1.0/">
	<!ENTITY ns_adobe_xpath "http://ns.adobe.com/XPath/1.0/">
]>
<svg version="1.2" baseProfile="tiny" id="Слой_1" xmlns:x="&ns_extend;" xmlns:i="&ns_ai;" xmlns:graph="&ns_graphs;"
	 xmlns="http://www.w3.org/2000/svg" xmlns:xlink="http://www.w3.org/1999/xlink" x="0px" y="0px" viewBox="0 0 200 200"
	 overflow="visible" xml:space="preserve">
<metadata>
	<sfw  xmlns="&ns_sfw;">
		<slices></slices>
		<sliceSourceBounds  bottomLeftOrigin="true" height="200" width="200" x="0" y="-200"></sliceSourceBounds>
	</sfw>
</metadata>
<g>
	<g>
		<path fill="#182D5B" d="M107.5,32.5V0C57.2,1.3,16.4,41.8,15.1,91.8h32.7C49.1,59.7,75.2,33.8,107.5,32.5z"/>
		<path fill="#AEA140" d="M107.5,16.4v32.5c32.4,1.3,58.4,27.2,59.7,59.3H200C198.7,58.2,157.9,17.8,107.5,16.4z"/>
		<path fill="#182D5B" d="M152.2,108.2c-1.3,32.1-27.4,58-59.7,59.3V200c50.4-1.3,91.1-41.8,92.5-91.8H152.2z"/>
		<path fill="#AEA140" d="M92.5,183.6v-32.5c-32.4-1.3-58.4-27.2-59.7-59.3H0C1.3,141.8,42.1,182.2,92.5,183.6z"/>
		<polygon fill="#182D5B" points="119.8,85.7 85.7,94.5 103.9,116.9"/>
	</g>
</g>
</svg>
